<?xml version="1.0" encoding="UTF-8" standalone="no"?>
<svg width="3034px" height="4161px" viewBox="0 0 3034 4161" version="1.1" xmlns="http://www.w3.org/2000/svg" xmlns:xlink="http://www.w3.org/1999/xlink">
    <!-- Generator: Sketch 40.3 (33839) - http://www.bohemiancoding.com/sketch -->
    <title>Group 2</title>
    <desc>Created with Sketch.</desc>
    <defs></defs>
    <g id="Page-1" stroke="none" stroke-width="1" fill="none" fill-rule="evenodd">
        <g id="Group" transform="translate(1.000000, 1.000000)">
            <g id="Group-2">
                <path d="M952.210025,4158.64069 C2100.58694,4158.64069 3031.53037,3227.69726 3031.53037,2079.32034 C3031.53037,930.943428 2100.58694,0 952.210025,0 C-196.166891,0 15.3245231,930.943428 15.3245231,2079.32034 C15.3245231,3227.69726 -196.166891,4158.64069 952.210025,4158.64069 Z" id="Oval" stroke="#979797" fill="#EF303B"></path>
                <path d="M1999.5314,3179.75127 C1995.62514,3187.56381 1987.16168,3203.51417 1974.14078,3227.60283 C1961.11988,3251.69149 1944.19297,3279.68601 1923.35953,3311.58721 C1902.52609,3343.48841 1877.78676,3377.34224 1849.14078,3413.14971 C1820.4948,3448.95718 1789.24512,3481.83445 1755.39078,3511.78252 C1721.53644,3541.73059 1685.07847,3566.46992 1646.01578,3586.00127 C1606.95308,3605.53262 1566.5889,3615.29814 1524.92203,3615.29814 C1457.21336,3615.29814 1399.92226,3603.25399 1353.04703,3579.16533 C1306.1718,3555.07667 1267.76072,3528.05871 1237.81265,3498.11064 C1216.97922,3543.68379 1191.58885,3585.35004 1161.64078,3623.11064 C1131.69271,3660.87125 1098.48992,3693.74852 1062.0314,3721.74346 C1025.57289,3749.73839 986.836297,3771.54807 945.820467,3787.17314 C904.804637,3802.79822 862.812869,3810.61064 819.843905,3810.61064 C740.416424,3810.61064 672.708768,3787.17338 616.718905,3740.29814 C560.729041,3693.42291 514.180028,3630.59802 477.070467,3551.82158 C439.960907,3473.04515 410.989842,3381.57471 390.156405,3277.40752 C369.322967,3173.24033 353.372606,3063.86643 342.304842,2949.28252 C331.237078,2834.69861 324.401209,2718.81435 321.79703,2601.62627 C319.19285,2484.43818 317.89078,2373.11117 317.89078,2267.64189 C317.89078,2065.81797 323.750096,1891.01503 335.468905,1743.22783 C347.187713,1595.44063 363.138075,1469.79085 383.320467,1366.27471 C403.50286,1262.75856 426.940125,1178.77503 453.632967,1114.32158 C480.325809,1049.86813 508.645838,999.738427 538.593905,963.930956 C568.541971,928.123486 599.140623,903.709667 630.39078,890.688769 C661.640936,877.66787 692.239588,871.157519 722.187655,871.157519 C770.364979,871.157519 813.007782,885.480292 850.117342,914.126269 C887.226903,942.772245 918.47659,982.810908 943.867342,1034.24346 C969.258094,1085.67601 988.463631,1147.84986 1001.48453,1220.76689 C1014.50543,1293.68393 1021.01578,1373.76125 1021.01578,1461.00127 C1021.01578,1600.32488 1006.04197,1744.20365 976.093905,1892.64189 C946.145838,2041.08014 907.409246,2189.19063 859.882967,2336.97783 C812.356688,2484.76503 759.297323,2629.94587 700.70328,2772.52471 C642.109237,2915.10354 584.167108,3050.19334 526.875155,3177.79814 C534.687694,3241.60055 546.406326,3302.47233 562.031405,3360.41533 C577.656483,3418.35833 597.838573,3469.79011 622.57828,3514.71221 C647.317987,3559.63431 676.614569,3595.44124 710.468905,3622.13408 C744.323241,3648.82692 783.38535,3662.17314 827.656405,3662.17314 C871.927459,3662.17314 913.593709,3649.47796 952.656405,3624.08721 C991.7191,3598.69645 1025.57293,3565.49366 1054.2189,3524.47783 C1082.86488,3483.462 1105.32559,3436.91299 1121.60172,3384.82939 C1137.87784,3332.7458 1146.01578,3279.36092 1146.01578,3224.67314 C1146.01578,3188.21463 1142.43509,3151.43114 1135.27359,3114.32158 C1128.1121,3077.21202 1117.0445,3044.00923 1102.07047,3014.71221 C1087.09643,2985.41518 1068.54193,2961.6524 1046.4064,2943.42314 C1024.27088,2925.19389 997.578436,2916.07939 966.32828,2916.07939 C942.890662,2916.07939 924.661678,2920.96216 911.64078,2930.72783 C898.619881,2940.49351 888.854354,2951.5611 882.343905,2963.93096 C875.833455,2976.30081 871.927244,2988.34496 870.625155,3000.06377 C869.323065,3011.78258 868.67203,3019.595 868.67203,3023.50127 C868.67203,3041.73053 872.578241,3059.95951 880.39078,3078.18877 C888.203319,3096.41803 903.177127,3112.69391 925.312655,3127.01689 C947.448182,3142.64197 958.51578,3164.12613 958.51578,3191.47002 C958.51578,3213.60555 951.028875,3231.1835 936.054842,3244.20439 C921.080809,3257.22529 904.479412,3263.73564 886.250155,3263.73564 C860.208358,3263.73564 837.09661,3255.92322 816.914217,3240.29814 C796.731825,3224.67307 779.479393,3204.81649 765.156405,3180.72783 C750.833416,3156.63917 739.765819,3130.92328 731.95328,3103.57939 C724.140741,3076.23551 720.23453,3050.84514 720.23453,3027.40752 C720.23453,2989.64691 726.744881,2954.81653 739.76578,2922.91533 C752.786678,2891.01413 770.690145,2863.67065 793.476717,2840.88408 C816.263289,2818.09751 842.304696,2800.51956 871.601717,2788.14971 C900.898739,2775.77985 931.822909,2769.59502 964.375155,2769.59502 C1020.36502,2769.59502 1068.86714,2782.61572 1109.88297,2808.65752 C1150.8988,2834.69932 1185.07814,2869.20418 1212.42203,2912.17314 C1239.76592,2955.14211 1259.94801,3003.96975 1272.9689,3058.65752 C1285.9898,3113.34529 1292.50015,3168.68328 1292.50015,3224.67314 C1292.50015,3257.22539 1290.54705,3289.12611 1286.64078,3320.37627 C1291.84914,3330.79299 1300.3126,3344.46473 1312.0314,3361.39189 C1323.75021,3378.31906 1339.37506,3394.59494 1358.9064,3410.22002 C1378.43775,3425.8451 1401.87502,3439.51684 1429.2189,3451.23564 C1456.56279,3462.95445 1488.46351,3468.81377 1524.92203,3468.81377 C1556.17219,3468.81377 1588.39843,3456.76962 1621.60172,3432.68096 C1654.80501,3408.59229 1686.70573,3378.64468 1717.30484,3342.83721 C1747.90395,3307.02974 1776.22398,3268.61866 1802.26578,3227.60283 C1828.30758,3186.587 1849.79174,3148.50144 1866.7189,3113.34502 C1873.22935,3100.32412 1882.34385,3090.23308 1894.06265,3083.07158 C1905.78146,3075.91009 1918.80217,3072.32939 1933.12515,3072.32939 C1955.26068,3072.32939 1973.16415,3080.14182 1986.83609,3095.76689 C2000.50804,3111.39197 2007.3439,3128.96992 2007.3439,3148.50127 C2007.3439,3156.31381 2004.73976,3166.73037 1999.5314,3179.75127 L1999.5314,3179.75127 Z M489.76578,2927.79814 C534.036834,2818.4226 578.95826,2703.51489 624.531405,2583.07158 C670.104549,2462.62827 711.119764,2339.90814 747.57828,2214.90752 C784.036795,2089.90689 813.984412,1963.60607 837.42203,1836.00127 C860.859647,1708.39646 872.57828,1582.74668 872.57828,1459.04814 C872.57828,1412.17291 870.299657,1363.01976 865.742342,1311.58721 C861.185028,1260.15466 853.047088,1212.95461 841.32828,1169.98564 C829.609471,1127.01668 813.65911,1091.20975 793.476717,1062.56377 C773.294325,1033.91779 747.578436,1019.59502 716.32828,1019.59502 C705.911561,1019.59502 692.56534,1026.43089 676.289217,1040.10283 C660.013094,1053.77477 642.760662,1077.86308 624.531405,1112.36846 C606.302147,1146.87384 588.073162,1194.72492 569.843905,1255.92314 C551.614647,1317.12137 535.01325,1394.92007 520.039217,1489.32158 C505.065184,1583.7231 492.695516,1697.32873 482.929842,1830.14189 C473.164168,1962.95506 468.281405,2119.2035 468.281405,2298.89189 C468.281405,2358.78803 468.93244,2419.65981 470.23453,2481.50908 C471.536619,2543.35835 473.164207,2602.27703 475.117342,2658.26689 C477.070477,2714.25676 479.3491,2765.68853 481.95328,2812.56377 C484.557459,2859.439 487.1616,2897.85008 489.76578,2927.79814 L489.76578,2927.79814 Z" id="b" fill="#481C19" transform="translate(1162.617342, 2340.884081) rotate(1.000000) translate(-1162.617342, -2340.884081) "></path>
            </g>
        </g>
    </g>
</svg>