<?xml version="1.0" encoding="UTF-8" standalone="no"?>
<svg width="64px" height="61px" viewBox="0 0 64 61" version="1.1" xmlns="http://www.w3.org/2000/svg" xmlns:xlink="http://www.w3.org/1999/xlink">
    <!-- Generator: Sketch 40.3 (33839) - http://www.bohemiancoding.com/sketch -->
    <title>VR Player</title>
    <desc>Created with Sketch.</desc>
    <defs></defs>
    <g id="Page-1" stroke="none" stroke-width="1" fill="none" fill-rule="evenodd">
        <g id="VR-Player">
            <path d="M61.5436,53.3375 C63.1236,49.5745 63.9996,45.4465 63.9996,41.1155 C63.9996,23.5645 49.6736,9.3375 31.9996,9.3375 C14.3266,9.3375 -0.0004,23.5645 -0.0004,41.1155 C-0.0004,45.4465 0.8756,49.5745 2.4566,53.3375 L61.5436,53.3375 Z" id="Fill-1" fill="#D4FFF1"></path>
            <path d="M6,53.3375 L4,53.3375" id="Stroke-4" stroke="#504B46" stroke-linecap="round"></path>
            <path d="M55.415,53.3375 C57.352,49.6845 58.461,45.5305 58.461,41.1155 C58.461,26.6025 46.614,14.8375 32,14.8375 C17.386,14.8375 5.538,26.6025 5.538,41.1155 C5.538,45.5305 6.647,49.6845 8.585,53.3375 L55.415,53.3375 Z" id="Fill-10" fill="#B8F4E1"></path>
            <path d="M60,53.3375 L58,53.3375" id="Stroke-6" stroke="#504B46" stroke-linecap="round"></path>
            <path d="M8,53.3375 L56,53.3375" id="Stroke-8" stroke="#504B46" stroke-linecap="round"></path>
            <path d="M17.5,59.8375 C17.5,60.3895 15.709,60.8375 13.5,60.8375 C11.291,60.8375 9.5,60.3895 9.5,59.8375 C9.5,59.2855 11.291,58.8375 13.5,58.8375 C15.709,58.8375 17.5,59.2855 17.5,59.8375 L17.5,59.8375 Z" id="Fill-13" fill="#E4EDF1"></path>
            <path d="M53.5,59.8375 C53.5,60.3895 51.709,60.8375 49.5,60.8375 C47.291,60.8375 45.5,60.3895 45.5,59.8375 C45.5,59.2855 47.291,58.8375 49.5,58.8375 C51.709,58.8375 53.5,59.2855 53.5,59.8375" id="Fill-15" fill="#E4EDF1"></path>
            <path d="M24,46.3375 L24,53.3375 L40,53.3375 L40,46.3375 L45,46.3375 L45,45.8375 C45,40.3145 40.523,35.8375 35,35.8375 L29,35.8375 C23.477,35.8375 19,40.3145 19,45.8375 L19,46.3375 L24,46.3375 Z" id="Fill-17" fill="#00A4CA"></path>
            <path d="M45,45.8375 C45,40.3145 40.523,35.8375 35,35.8375 L29,35.8375 C23.477,35.8375 19,40.3145 19,45.8375 L19,46.8375 C19,41.3145 23.477,39.8375 29,39.8375 L35,39.8375 C40.523,39.8375 45,41.3145 45,46.8375 L45,45.8375 Z" id="Fill-19" fill="#45B7D4"></path>
            <path d="M32,46.8375 C32,46.8375 37,39.5985 37,36.8375 L37,36.0385 C36.354,35.9075 35.685,35.8375 35,35.8375 L29,35.8375 C28.315,35.8375 27.646,35.9075 27,36.0385 L27,36.8375 C27,39.5985 32,46.8375 32,46.8375" id="Fill-21" fill="#C5F6F4"></path>
            <path d="M37,36.3375 L37,36.8375 C37,39.5985 32,46.8375 32,46.8375 C32,46.8375 27,39.5985 27,36.8375 L27,36.3375" id="Stroke-23" stroke="#504B46" stroke-linecap="round" stroke-linejoin="round"></path>
            <path d="M40,46.3375 L40,46.3375 L45,46.3375 L45,45.8375 C45,40.3145 40.523,35.8375 35,35.8375 L29,35.8375 C23.477,35.8375 19,40.3145 19,45.8375 L19,46.3375 L24,46.3375" id="Stroke-25" stroke="#504B46" stroke-linecap="round" stroke-linejoin="round"></path>
            <path d="M35,36.732 C35,38.386 32,43.338 32,43.338 C32,43.338 29,38.384 29,36.732 L29,32.338 L35,32.338 L35,36.732 Z" id="Fill-27" fill="#FFDFD1"></path>
            <path d="M40,43.8375 L40,43.3375" id="Stroke-29" stroke="#504B46" stroke-linecap="round" stroke-linejoin="round"></path>
            <polyline id="Stroke-31" stroke="#504B46" stroke-linecap="round" stroke-linejoin="round" points="24 45.3375 24 53.3375 40 53.3375 40 45.3375"></polyline>
            <path d="M24,47.3375 L24,46.3375" id="Fill-33" fill="#EDF2F4"></path>
            <path d="M24,47.3375 L24,46.3375" id="Stroke-35" stroke="#504B46" stroke-linecap="round" stroke-linejoin="round"></path>
            <path d="M29,35.7303 C29.076,35.7643 29.147,35.8023 29.227,35.8333 C30.906,36.5053 33.094,36.5053 34.773,35.8333 C34.853,35.8023 34.924,35.7643 35,35.7303 L35,32.3373 L29,32.3373 L29,35.7303 Z" id="Fill-37" fill="#FFCAB3"></path>
            <path d="M35,36.732 C35,38.386 32,43.338 32,43.338 C32,43.338 29,38.384 29,36.732 L29,32.338 L35,32.338 L35,36.732 L35,36.732 Z" id="Stroke-39" stroke="#504B46" stroke-linecap="round" stroke-linejoin="round"></path>
            <path d="M24,43.8375 L24,43.3375" id="Stroke-41" stroke="#504B46" stroke-linecap="round" stroke-linejoin="round"></path>
            <path d="M46.2373,56.1734 C44.7593,56.1734 43.5093,55.8134 42.5223,55.1014 C40.2873,53.4904 40.0003,50.6404 40.0003,48.3374 L40.0003,46.3374 L44.0003,46.3374 L44.0003,48.3374 C44.0003,50.2604 44.2903,51.4444 44.8603,51.8574 C45.0653,52.0044 45.4713,52.1804 46.2483,52.1804 C47.1763,52.1804 48.3943,51.9314 49.8673,51.4404 L50.3413,51.2814 L51.6073,55.0764 L51.1333,55.2354 C49.2373,55.8664 47.6363,56.1734 46.2373,56.1734" id="Fill-43" fill="#FFDFD1"></path>
            <path d="M46.2373,56.1734 C44.7593,56.1734 43.5093,55.8134 42.5223,55.1014 C40.2873,53.4904 40.0003,50.6404 40.0003,48.3374 L40.0003,46.3374 L44.0003,46.3374 L44.0003,48.3374 C44.0003,50.2604 44.2903,51.4444 44.8603,51.8574 C45.0653,52.0044 45.4713,52.1804 46.2483,52.1804 C47.1763,52.1804 48.3943,51.9314 49.8673,51.4404 L50.3413,51.2814 L51.6073,55.0764 L51.1333,55.2354 C49.2373,55.8664 47.6363,56.1734 46.2373,56.1734 L46.2373,56.1734 Z" id="Stroke-45" stroke="#4F4A45"></path>
            <path d="M17.7627,56.1734 C16.3637,56.1734 14.7627,55.8664 12.8667,55.2354 L12.3927,55.0764 L13.6587,51.2814 L14.1327,51.4404 C15.6067,51.9314 16.8247,52.1804 17.7527,52.1804 C18.5287,52.1804 18.9347,52.0044 19.1387,51.8574 C19.7097,51.4444 19.9997,50.2604 19.9997,48.3374 L19.9997,46.3374 L23.9997,46.3374 L23.9997,48.3374 C23.9997,50.6404 23.7127,53.4904 21.4777,55.1014 C20.4917,55.8134 19.2417,56.1734 17.7627,56.1734" id="Fill-47" fill="#FFDFD1"></path>
            <path d="M17.7627,56.1734 C16.3637,56.1734 14.7627,55.8664 12.8667,55.2354 L12.3927,55.0764 L13.6587,51.2814 L14.1327,51.4404 C15.6067,51.9314 16.8247,52.1804 17.7527,52.1804 C18.5287,52.1804 18.9347,52.0044 19.1387,51.8574 C19.7097,51.4444 19.9997,50.2604 19.9997,48.3374 L19.9997,46.3374 L23.9997,46.3374 L23.9997,48.3374 C23.9997,50.6404 23.7127,53.4904 21.4777,55.1014 C20.4917,55.8134 19.2417,56.1734 17.7627,56.1734 L17.7627,56.1734 Z" id="Stroke-49" stroke="#4F4A45"></path>
            <path d="M55.3108,54.0863 C54.5558,56.7423 51.7908,58.2843 49.1348,57.5293 C46.4778,56.7743 44.9368,54.0083 45.6918,51.3523 C46.4468,48.6963 49.2118,47.1553 51.8678,47.9103 C54.5248,48.6643 56.0658,51.4303 55.3108,54.0863 L55.3108,54.0863 Z" id="Stroke-51" stroke="#4F4A45"></path>
            <polygon id="Fill-53" fill="#6F7173" points="52.1467 50.588 50.2227 50.041 50.4347 47.526 53.3207 48.346"></polygon>
            <polygon id="Stroke-55" stroke="#4F4A45" stroke-linejoin="round" points="52.1467 50.588 50.2227 50.041 50.4347 47.526 53.3207 48.346"></polygon>
            <path d="M52.2862,55.5994 C52.0492,55.9744 51.5942,56.1484 51.1682,56.0274 L48.9442,55.3954 C47.6692,55.0334 46.9292,53.7054 47.2912,52.4304 L47.6192,51.2764 C47.9812,50.0014 49.3092,49.2614 50.5842,49.6244 L52.8082,50.2564 C53.2352,50.3774 53.5302,50.7654 53.5342,51.2084 C53.5492,52.7614 53.1152,54.2864 52.2862,55.5994" id="Fill-57" fill="#FFDFD1"></path>
            <path d="M52.2862,55.5994 C52.0492,55.9744 51.5942,56.1484 51.1682,56.0274 L48.9442,55.3954 C47.6692,55.0334 46.9292,53.7054 47.2912,52.4304 L47.6192,51.2764 C47.9812,50.0014 49.3092,49.2614 50.5842,49.6244 L52.8082,50.2564 C53.2352,50.3774 53.5302,50.7654 53.5342,51.2084 C53.5492,52.7614 53.1152,54.2864 52.2862,55.5994 L52.2862,55.5994 Z" id="Stroke-59" stroke="#504B46" stroke-linecap="round" stroke-linejoin="round"></path>
            <path d="M47.758,54.6243 C47.77,54.4653 47.798,54.3063 47.843,54.1473 L48.171,52.9923 C48.533,51.7173 49.861,50.9783 51.136,51.3403 L53.501,52.0123 C53.525,51.7463 53.536,51.4783 53.534,51.2083 C53.53,50.7643 53.234,50.3773 52.807,50.2563 L50.584,49.6243 C49.309,49.2613 47.982,50.0013 47.619,51.2763 L47.291,52.4313 C47.066,53.2233 47.268,54.0353 47.758,54.6243" id="Fill-61" fill="#FFEFE9"></path>
            <path d="M52.2857,55.6001 C52.0487,55.9751 51.5937,56.1491 51.1667,56.0271 L48.9437,55.3951 C47.6687,55.0331 46.9287,53.7061 47.2917,52.4311 L47.6197,51.2761 C47.9817,50.0011 49.3087,49.2621 50.5837,49.6241 L52.8077,50.2561 C53.2337,50.3771 53.5297,50.7651 53.5337,51.2081 C53.5417,51.9521 53.4457,52.6901 53.2527,53.4021 C53.0427,54.1751 52.7177,54.9161 52.2857,55.6001 L52.2857,55.6001 Z" id="Stroke-63" stroke="#504B46" stroke-linecap="round" stroke-linejoin="round"></path>
            <path d="M53.5936,47.3845 C53.4426,47.9155 52.8896,48.2245 52.3586,48.0735 L51.3966,47.7995 C50.8656,47.6485 50.5566,47.0955 50.7076,46.5645 C50.8586,46.0335 51.4116,45.7245 51.9436,45.8755 L52.9046,46.1495 C53.4366,46.3005 53.7446,46.8535 53.5936,47.3845" id="Fill-65" fill="#FFDFD1"></path>
            <path d="M53.5936,47.3845 C53.4426,47.9155 52.8896,48.2245 52.3586,48.0735 L51.3966,47.7995 C50.8656,47.6485 50.5566,47.0955 50.7076,46.5645 C50.8586,46.0335 51.4116,45.7245 51.9436,45.8755 L52.9046,46.1495 C53.4366,46.3005 53.7446,46.8535 53.5936,47.3845 L53.5936,47.3845 Z" id="Stroke-67" stroke="#504B46" stroke-linecap="round" stroke-linejoin="round"></path>
            <path d="M8.6892,54.0863 C9.4442,56.7423 12.2092,58.2843 14.8652,57.5293 C17.5222,56.7743 19.0632,54.0083 18.3082,51.3523 C17.5532,48.6963 14.7882,47.1553 12.1322,47.9103 C9.4752,48.6643 7.9342,51.4303 8.6892,54.0863 L8.6892,54.0863 Z" id="Stroke-69" stroke="#4F4A45"></path>
            <polygon id="Fill-71" fill="#6F7173" points="11.8533 50.588 13.7773 50.041 13.5653 47.526 10.6793 48.346"></polygon>
            <polygon id="Stroke-73" stroke="#4F4A45" stroke-linejoin="round" points="11.8533 50.588 13.7773 50.041 13.5653 47.526 10.6793 48.346"></polygon>
            <path d="M11.7138,55.5994 C11.9508,55.9744 12.4058,56.1484 12.8318,56.0274 L15.0558,55.3954 C16.3308,55.0334 17.0708,53.7054 16.7088,52.4304 L16.3808,51.2764 C16.0188,50.0014 14.6908,49.2614 13.4158,49.6244 L11.1918,50.2564 C10.7648,50.3774 10.4698,50.7654 10.4658,51.2084 C10.4508,52.7614 10.8848,54.2864 11.7138,55.5994" id="Fill-75" fill="#FFDFD1"></path>
            <path d="M11.7138,55.5994 C11.9508,55.9744 12.4058,56.1484 12.8318,56.0274 L15.0558,55.3954 C16.3308,55.0334 17.0708,53.7054 16.7088,52.4304 L16.3808,51.2764 C16.0188,50.0014 14.6908,49.2614 13.4158,49.6244 L11.1918,50.2564 C10.7648,50.3774 10.4698,50.7654 10.4658,51.2084 C10.4508,52.7614 10.8848,54.2864 11.7138,55.5994 L11.7138,55.5994 Z" id="Stroke-77" stroke="#504B46" stroke-linecap="round" stroke-linejoin="round"></path>
            <path d="M16.242,54.6243 C16.23,54.4653 16.202,54.3063 16.157,54.1473 L15.829,52.9923 C15.467,51.7173 14.139,50.9783 12.864,51.3403 L10.499,52.0123 C10.475,51.7463 10.464,51.4783 10.466,51.2083 C10.47,50.7643 10.766,50.3773 11.193,50.2563 L13.416,49.6243 C14.691,49.2613 16.018,50.0013 16.381,51.2763 L16.709,52.4313 C16.934,53.2233 16.732,54.0353 16.242,54.6243" id="Fill-79" fill="#FFEFE9"></path>
            <path d="M11.7143,55.6001 C11.9513,55.9751 12.4063,56.1491 12.8333,56.0271 L15.0563,55.3951 C16.3313,55.0331 17.0713,53.7061 16.7083,52.4311 L16.3803,51.2761 C16.0183,50.0011 14.6913,49.2621 13.4163,49.6241 L11.1923,50.2561 C10.7663,50.3771 10.4703,50.7651 10.4663,51.2081 C10.4583,51.9521 10.5543,52.6901 10.7473,53.4021 C10.9573,54.1751 11.2823,54.9161 11.7143,55.6001 L11.7143,55.6001 Z" id="Stroke-81" stroke="#504B46" stroke-linecap="round" stroke-linejoin="round"></path>
            <path d="M10.4064,47.3845 C10.5574,47.9155 11.1104,48.2245 11.6414,48.0735 L12.6034,47.7995 C13.1344,47.6485 13.4434,47.0955 13.2924,46.5645 C13.1414,46.0335 12.5884,45.7245 12.0564,45.8755 L11.0954,46.1495 C10.5634,46.3005 10.2554,46.8535 10.4064,47.3845" id="Fill-83" fill="#FFDFD1"></path>
            <path d="M10.4064,47.3845 C10.5574,47.9155 11.1104,48.2245 11.6414,48.0735 L12.6034,47.7995 C13.1344,47.6485 13.4434,47.0955 13.2924,46.5645 C13.1414,46.0335 12.5884,45.7245 12.0564,45.8755 L11.0954,46.1495 C10.5634,46.3005 10.2554,46.8535 10.4064,47.3845 L10.4064,47.3845 Z" id="Stroke-85" stroke="#504B46" stroke-linecap="round" stroke-linejoin="round"></path>
            <path d="M45,21.3375 L45,25.3375" id="Stroke-87" stroke="#4F4A45"></path>
            <path d="M19,21.3375 L19,25.3375" id="Stroke-89" stroke="#4F4A45"></path>
            <path d="M41.5,24.8375 C41.5,23.9065 40.861,23.1315 40,22.9085 L40,22.3375 C40,17.9195 36.418,14.3375 32,14.3375 C27.582,14.3375 24,17.9195 24,22.3375 L24,22.9085 C23.139,23.1315 22.5,23.9065 22.5,24.8375 C22.5,25.7765 23.149,26.5585 24.022,26.7735 C24.25,30.9875 27.729,34.3375 32,34.3375 C36.271,34.3375 39.75,30.9875 39.978,26.7735 C40.851,26.5585 41.5,25.7765 41.5,24.8375" id="Fill-91" fill="#FFDFD1"></path>
            <path d="M41.5,24.8375 C41.5,23.9065 40.861,23.1315 40,22.9085 L40,22.3375 C40,17.9195 36.418,14.3375 32,14.3375 C27.582,14.3375 24,17.9195 24,22.3375 L24,22.9085 C23.139,23.1315 22.5,23.9065 22.5,24.8375 C22.5,25.7765 23.149,26.5585 24.022,26.7735 C24.25,30.9875 27.729,34.3375 32,34.3375 C36.271,34.3375 39.75,30.9875 39.978,26.7735 C40.851,26.5585 41.5,25.7765 41.5,24.8375 L41.5,24.8375 Z" id="Stroke-93" stroke="#504B46" stroke-linecap="round" stroke-linejoin="round"></path>
            <path d="M30.5,25.3375 C30.191,24.7505 29.649,24.3375 29,24.3375 C28.351,24.3375 27.809,24.7505 27.5,25.3375" id="Stroke-95" stroke="#504B46" stroke-linecap="round" stroke-linejoin="round"></path>
            <path d="M36.5,25.3375 C36.191,24.7505 35.649,24.3375 35,24.3375 C34.351,24.3375 33.809,24.7505 33.5,25.3375" id="Stroke-97" stroke="#504B46" stroke-linecap="round" stroke-linejoin="round"></path>
            <path d="M28.925,29.8375 C29.542,30.4245 30.628,30.8375 31.925,30.8375 C33.222,30.8375 34.308,30.4245 34.925,29.8375" id="Stroke-99" stroke="#504B46" stroke-linecap="round" stroke-linejoin="round"></path>
            <path d="M28,28.3375 C28,28.8895 27.552,29.3375 27,29.3375 C26.448,29.3375 26,28.8895 26,28.3375 C26,27.7855 26.448,27.3375 27,27.3375 C27.552,27.3375 28,27.7855 28,28.3375" id="Fill-101" fill="#FFCAB3"></path>
            <path d="M38,28.3375 C38,28.8895 37.552,29.3375 37,29.3375 C36.448,29.3375 36,28.8895 36,28.3375 C36,27.7855 36.448,27.3375 37,27.3375 C37.552,27.3375 38,27.7855 38,28.3375" id="Fill-103" fill="#FFCAB3"></path>
            <path d="M23.5,11.8375 C23.894,12.3495 26.395,13.3395 26,13.8375 C23,13.8375 21.5,14.8375 21.5,14.8375 L23,16.3375 C22.365,18.0535 23.5,18.9755 23.5,19.8375 C23.5,21.4945 26.067,19.3375 28,19.3375 C29.933,19.3375 32,15.9945 32,14.3375 C32,12.7665 27.5,10.8375 23.5,11.8375" id="Fill-105" fill="#FFE086"></path>
            <path d="M23.5,11.8375 C23.894,12.3495 26.395,13.3395 26,13.8375 C23,13.8375 21.5,14.8375 21.5,14.8375 L23,16.3375 C22.365,18.0535 23.5,18.9755 23.5,19.8375 C23.5,21.4945 26.067,19.3375 28,19.3375 C29.933,19.3375 32,15.9945 32,14.3375 C32,12.7665 27.5,10.8375 23.5,11.8375 L23.5,11.8375 Z" id="Stroke-107" stroke="#4F4A45" stroke-linejoin="round"></path>
            <path d="M40,11.3375 C39.606,11.8495 37.605,13.3395 38,13.8375 C41,13.8375 42.5,14.8375 42.5,14.8375 L41,16.3375 C41.635,18.0535 40.5,18.9755 40.5,19.8375 C40.5,21.4945 37.933,19.3375 36,19.3375 C34.067,19.3375 32,15.9945 32,14.3375 C32,12.7665 37,11.3375 40,11.3375" id="Fill-109" fill="#FFE086"></path>
            <path d="M40,11.3375 C39.606,11.8495 37.605,13.3395 38,13.8375 C41,13.8375 42.5,14.8375 42.5,14.8375 L41,16.3375 C41.635,18.0535 40.5,18.9755 40.5,19.8375 C40.5,21.4945 37.933,19.3375 36,19.3375 C34.067,19.3375 32,15.9945 32,14.3375 C32,12.7665 37,11.3375 40,11.3375 L40,11.3375 Z" id="Stroke-111" stroke="#4F4A45" stroke-linejoin="round"></path>
            <path d="M45,21.3375 C45,21.8895 44.552,22.3375 44,22.3375 L43,22.3375 L43,19.3375 L44,19.3375 C44.552,19.3375 45,19.7855 45,20.3375 L45,21.3375 Z" id="Fill-113" fill="#939598"></path>
            <path d="M45,21.3375 C45,21.8895 44.552,22.3375 44,22.3375 L43,22.3375 L43,19.3375 L44,19.3375 C44.552,19.3375 45,19.7855 45,20.3375 L45,21.3375 L45,21.3375 Z" id="Stroke-115" stroke="#4F4A45"></path>
            <path d="M43.9478,28.3759 C43.6838,29.0139 42.9528,29.3169 42.3148,29.0519 C41.6768,28.7879 41.3738,28.0569 41.6378,27.4189 L42.5948,25.1099 C42.8588,24.4719 43.5898,24.1689 44.2278,24.4329 C44.8658,24.6969 45.1688,25.4289 44.9048,26.0659 L43.9478,28.3759 Z" id="Fill-117" fill="#545454"></path>
            <path d="M43.9478,28.3759 C43.6838,29.0139 42.9528,29.3169 42.3148,29.0519 C41.6768,28.7879 41.3738,28.0569 41.6378,27.4189 L42.5948,25.1099 C42.8588,24.4719 43.5898,24.1689 44.2278,24.4329 C44.8658,24.6969 45.1688,25.4289 44.9048,26.0659 L43.9478,28.3759 L43.9478,28.3759 Z" id="Stroke-119" stroke="#4F4A45"></path>
            <path d="M20,22.3375 L21,22.3375 L21,19.3375 L20,19.3375 C19.448,19.3375 19,19.7855 19,20.3375 L19,21.3375 C19,21.8895 19.448,22.3375 20,22.3375" id="Fill-121" fill="#939598"></path>
            <path d="M20,22.3375 L21,22.3375 L21,19.3375 L20,19.3375 C19.448,19.3375 19,19.7855 19,20.3375 L19,21.3375 C19,21.8895 19.448,22.3375 20,22.3375 L20,22.3375 Z" id="Stroke-123" stroke="#4F4A45"></path>
            <path d="M20.0522,28.3759 C20.3162,29.0139 21.0472,29.3169 21.6852,29.0519 C22.3232,28.7879 22.6262,28.0569 22.3622,27.4189 L21.4052,25.1099 C21.1412,24.4719 20.4102,24.1689 19.7722,24.4329 C19.1342,24.6969 18.8312,25.4289 19.0952,26.0659 L20.0522,28.3759 Z" id="Fill-125" fill="#545454"></path>
            <path d="M20.0522,28.3759 C20.3162,29.0139 21.0472,29.3169 21.6852,29.0519 C22.3232,28.7879 22.6262,28.0569 22.3622,27.4189 L21.4052,25.1099 C21.1412,24.4719 20.4102,24.1689 19.7722,24.4329 C19.1342,24.6969 18.8312,25.4289 19.0952,26.0659 L20.0522,28.3759 L20.0522,28.3759 Z" id="Stroke-127" stroke="#4F4A45"></path>
            <path d="M42.879,19.0674 C43.041,20.9114 43.04,22.7674 42.879,24.6114 C42.743,26.1584 41.49,27.3374 39.986,27.3374 L24.014,27.3374 C22.513,27.3374 21.257,26.1554 21.121,24.6114 C20.96,22.7664 20.96,20.9094 21.121,19.0634 C21.257,17.5164 22.51,16.3374 24.014,16.3374 L39.99,16.3374 C41.494,16.3374 42.744,17.5204 42.879,19.0674" id="Fill-129" fill="#6F7173"></path>
            <path d="M21.0377,23.3375 C21.0577,22.9125 21.0847,22.4875 21.1217,22.0635 C21.2567,20.5165 22.5097,19.3375 24.0137,19.3375 L39.9897,19.3375 C41.4937,19.3375 42.7437,20.5205 42.8787,22.0675 C42.9157,22.4905 42.9427,22.9145 42.9627,23.3375 C43.0297,21.9145 43.0037,20.4875 42.8787,19.0675 C42.7437,17.5205 41.4937,16.3375 39.9897,16.3375 L24.0137,16.3375 C22.5097,16.3375 21.2567,17.5165 21.1217,19.0635 C20.9967,20.4845 20.9707,21.9125 21.0377,23.3375" id="Fill-131" fill="#939598"></path>
            <path d="M33.5,16.3375 L30.5,16.3375 L30.5,11.3375 C30.5,11.0615 30.724,10.8375 31,10.8375 L33,10.8375 C33.276,10.8375 33.5,11.0615 33.5,11.3375 L33.5,16.3375 Z" id="Fill-133" fill="#BDBEC0"></path>
            <path d="M42.879,19.0674 C43.041,20.9114 43.04,22.7674 42.879,24.6114 C42.743,26.1584 41.49,27.3374 39.986,27.3374 L24.014,27.3374 C22.513,27.3374 21.257,26.1554 21.121,24.6114 C20.96,22.7664 20.96,20.9094 21.121,19.0634 C21.257,17.5164 22.51,16.3374 24.014,16.3374 L39.99,16.3374 C41.494,16.3374 42.744,17.5204 42.879,19.0674 L42.879,19.0674 Z" id="Stroke-135" stroke="#4F4A45"></path>
            <polygon id="Fill-137" fill="#DADCDC" points="30.5 13.3375 33.5 13.3375 33.5 10.8375 30.5 10.8375"></polygon>
            <path d="M33.5,16.3375 L30.5,16.3375 L30.5,11.3375 C30.5,11.0615 30.724,10.8375 31,10.8375 L33,10.8375 C33.276,10.8375 33.5,11.0615 33.5,11.3375 L33.5,16.3375 L33.5,16.3375 Z" id="Stroke-139" stroke="#4F4A45"></path>
            <path d="M12,20.3375 L12,16.3375" id="Stroke-140" stroke="#F1637E" stroke-linecap="round" stroke-linejoin="round"></path>
            <path d="M10,18.3375 L14,18.3375" id="Stroke-141" stroke="#F1637E" stroke-linecap="round" stroke-linejoin="round"></path>
            <path d="M31.5,3.8375 L31.5,1.8375" id="Stroke-142" stroke="#45B7D4" stroke-linecap="round" stroke-linejoin="round"></path>
            <path d="M30.5,2.8375 L32.5,2.8375" id="Stroke-143" stroke="#45B7D4" stroke-linecap="round" stroke-linejoin="round"></path>
            <path d="M59,29.3375 L59,27.3375" id="Stroke-144" stroke="#45B7D4" stroke-linecap="round" stroke-linejoin="round"></path>
            <path d="M58,28.3375 L60,28.3375" id="Stroke-145" stroke="#45B7D4" stroke-linecap="round" stroke-linejoin="round"></path>
            <path d="M53.5,9.3375 L53.5,7.3375" id="Stroke-146" stroke="#FFC258" stroke-linecap="round" stroke-linejoin="round"></path>
            <path d="M52.5,8.3375 L54.5,8.3375" id="Stroke-147" stroke="#FFC258" stroke-linecap="round" stroke-linejoin="round"></path>
            <path d="M9,10.8375 L9,8.8375" id="Stroke-148" stroke="#4ACEAF" stroke-linecap="round" stroke-linejoin="round"></path>
            <path d="M8,9.8375 L10,9.8375" id="Stroke-149" stroke="#4ACEAF" stroke-linecap="round" stroke-linejoin="round"></path>
            <path d="M41.2929,7.0023 C41.2009,7.1743 41.2059,7.3823 41.3069,7.5493 C41.4069,7.7163 41.5879,7.8183 41.7829,7.8183 L46.4449,7.8183 C46.6399,7.8183 46.8209,7.7163 46.9209,7.5493 C47.0209,7.3823 47.0269,7.1743 46.9349,7.0023 L44.6039,2.6313 C44.5069,2.4503 44.3189,2.3373 44.1139,2.3373 C43.9089,2.3373 43.7209,2.4503 43.6239,2.6313 L41.2929,7.0023 L41.2929,7.0023 Z" id="Stroke-150" stroke="#F1637E" stroke-linecap="round" stroke-linejoin="round"></path>
            <path d="M14.5707,29.7423 C13.1257,33.1543 9.1887,34.7493 5.7757,33.3043 C3.0467,32.1493 1.7707,28.9993 2.9257,26.2693 C3.8507,24.0853 6.3707,23.0643 8.5547,23.9893 C10.3017,24.7293 11.1187,26.7453 10.3787,28.4923 C9.7867,29.8893 8.1737,30.5433 6.7767,29.9513 C5.6587,29.4773 5.1357,28.1873 5.6087,27.0693 C5.9877,26.1753 7.0197,25.7563 7.9147,26.1353" id="Stroke-151" stroke="#45B7D4" stroke-linecap="round" stroke-linejoin="round"></path>
            <path d="M50.9737,23.8196 L50.9737,22.8636 C50.9737,22.2266 51.4907,21.7106 52.1277,21.7106 L53.0827,21.7106 C53.7207,21.7106 54.2367,21.1936 54.2367,20.5566 L54.2367,19.6006 C54.2367,18.9636 54.7537,18.4466 55.3907,18.4466 L56.3467,18.4466 C56.9837,18.4466 57.4997,17.9306 57.4997,17.2936 L57.4997,16.3376" id="Stroke-152" stroke="#4ACEAF" stroke-linecap="round" stroke-linejoin="round"></path>
            <path d="M15,0.5 L16.186,0.5 C16.902,0.5 17.483,1.081 17.483,1.797 L17.483,2.872 C17.483,3.588 18.064,4.169 18.78,4.169 L19.855,4.169 C20.571,4.169 21.152,4.749 21.152,5.466 L21.152,6.54 C21.152,7.257 21.732,7.838 22.449,7.838" id="Stroke-153" stroke="#FFC258" stroke-linecap="round" stroke-linejoin="round"></path>
        </g>
    </g>
</svg>