<?xml version="1.0" standalone="no"?>
<!DOCTYPE svg PUBLIC "-//W3C//DTD SVG 20010904//EN"
 "http://www.w3.org/TR/2001/REC-SVG-20010904/DTD/svg10.dtd">
<svg version="1.0" xmlns="http://www.w3.org/2000/svg"
 width="4161.000000pt" height="4161.000000pt" viewBox="0 0 4161.000000 4161.000000"
 preserveAspectRatio="xMidYMid meet">
<metadata>
Created by potrace 1.11, written by Peter Selinger 2001-2013
</metadata>
<g transform="translate(0.000000,4161.000000) scale(0.100000,-0.100000)"
fill="#000000" stroke="none">
<path d="M14967 41604 c-1 -1 -141 -4 -312 -8 -170 -4 -337 -9 -370 -11 -33
-2 -116 -6 -185 -10 -69 -3 -141 -8 -160 -10 -19 -2 -84 -7 -145 -11 -180 -11
-188 -12 -247 -18 -143 -15 -227 -23 -313 -31 -38 -3 -81 -8 -95 -10 -14 -2
-43 -6 -65 -9 -22 -3 -76 -10 -120 -16 -44 -6 -100 -13 -125 -16 -25 -2 -99
-13 -165 -24 -66 -11 -137 -22 -159 -26 -21 -3 -48 -8 -60 -10 -11 -2 -60 -11
-108 -19 -48 -9 -154 -29 -235 -46 -81 -16 -161 -32 -178 -35 -85 -15 -496
-120 -675 -173 -581 -170 -1164 -404 -1575 -631 -290 -160 -484 -280 -695
-428 -141 -100 -387 -290 -455 -353 -22 -20 -56 -50 -75 -65 -158 -131 -454
-434 -658 -674 -195 -231 -459 -603 -617 -872 -166 -283 -323 -594 -475 -943
-176 -403 -361 -965 -502 -1520 -46 -185 -42 -168 -63 -265 -9 -41 -22 -100
-30 -130 -13 -51 -99 -479 -109 -545 -3 -16 -14 -84 -26 -150 -11 -66 -23
-136 -26 -155 -7 -45 -13 -83 -19 -117 -11 -72 -25 -163 -30 -208 -3 -27 -8
-61 -10 -75 -2 -14 -7 -43 -9 -65 -3 -22 -12 -92 -21 -155 -14 -108 -48 -407
-61 -530 -3 -30 -7 -68 -9 -85 -2 -16 -6 -70 -10 -120 -4 -49 -8 -101 -10
-115 -5 -33 -14 -138 -20 -225 -3 -38 -7 -97 -10 -130 -7 -90 -14 -179 -20
-280 -3 -49 -7 -117 -10 -150 -2 -33 -7 -114 -10 -180 -3 -66 -8 -154 -10
-195 -2 -41 -7 -149 -10 -240 -3 -91 -7 -217 -10 -280 -11 -282 -21 -716 -25
-1137 -1 -83 1 -156 4 -162 4 -5 3 -12 -1 -14 -13 -8 -5 -1483 12 -2292 13
-625 20 -933 30 -1280 3 -93 7 -271 10 -395 3 -124 7 -301 10 -395 2 -93 7
-269 10 -390 3 -121 7 -299 10 -395 4 -164 9 -350 20 -805 3 -104 7 -318 11
-475 3 -157 7 -355 9 -440 12 -558 19 -1372 19 -2250 0 -1075 -7 -1756 -28
-2680 -3 -129 -8 -350 -11 -490 -3 -140 -8 -331 -10 -425 -3 -93 -7 -264 -10
-380 -3 -115 -7 -291 -10 -390 -2 -99 -7 -281 -10 -405 -3 -124 -8 -295 -10
-380 -2 -85 -7 -267 -10 -405 -4 -137 -8 -302 -10 -365 -2 -63 -6 -268 -10
-455 -4 -187 -8 -403 -10 -480 -22 -878 -22 -2845 0 -3275 1 -30 6 -165 10
-300 4 -135 8 -274 10 -310 2 -36 6 -126 9 -200 4 -74 8 -169 11 -210 2 -41 7
-122 10 -180 4 -58 8 -125 10 -150 2 -25 7 -94 11 -155 3 -60 8 -118 10 -128
2 -10 6 -68 9 -130 3 -62 8 -123 10 -137 2 -14 6 -54 10 -90 3 -36 8 -85 10
-110 3 -25 7 -74 10 -110 6 -78 16 -179 20 -200 2 -14 9 -76 21 -195 3 -27 7
-61 9 -75 2 -14 7 -45 10 -70 3 -25 7 -61 10 -80 7 -51 14 -109 20 -160 5 -43
32 -227 40 -280 2 -14 13 -83 25 -155 11 -71 29 -182 40 -245 11 -63 23 -129
26 -147 3 -18 28 -141 55 -275 28 -134 53 -256 55 -272 13 -70 156 -623 194
-751 123 -411 261 -806 375 -1070 322 -749 650 -1297 1098 -1840 246 -298 653
-695 911 -889 41 -31 81 -62 88 -69 7 -7 54 -42 103 -77 50 -35 113 -80 140
-100 110 -79 349 -229 500 -312 11 -7 47 -27 80 -46 95 -54 419 -215 557 -276
565 -250 1202 -450 1863 -585 110 -23 220 -46 245 -51 25 -5 59 -12 75 -14 17
-3 84 -14 150 -25 66 -11 138 -23 160 -26 22 -4 51 -8 65 -10 14 -2 48 -7 75
-10 28 -3 61 -8 75 -10 14 -3 48 -7 75 -10 28 -4 77 -10 110 -15 33 -5 132
-16 220 -25 88 -8 176 -17 195 -20 65 -8 199 -19 370 -30 58 -4 121 -8 140
-10 35 -3 174 -11 397 -20 555 -25 1485 -16 2003 20 25 1 92 6 150 9 58 3 130
8 160 11 30 3 89 7 130 10 41 3 95 8 120 10 25 2 74 7 110 10 60 5 91 7 235
21 28 2 66 6 85 9 51 7 107 13 170 20 30 3 71 8 90 10 19 2 60 7 90 10 51 5
97 11 160 20 14 2 90 13 170 24 80 11 161 23 180 25 19 3 53 8 75 11 22 3 65
10 95 15 30 5 69 12 85 14 17 3 98 16 180 30 83 14 164 27 180 30 26 4 67 12
165 31 14 3 61 12 105 21 44 8 94 18 110 20 17 3 145 30 285 60 140 30 263 56
275 58 11 2 88 20 170 41 83 20 197 47 255 61 249 61 681 180 1040 288 105 32
593 190 685 223 280 98 483 172 510 183 11 5 99 39 195 75 96 36 184 70 195
75 20 9 98 41 310 127 61 24 124 50 140 58 17 7 86 38 155 68 366 159 609 273
1000 469 206 104 411 207 455 231 44 24 118 63 165 88 47 25 103 56 125 68 22
13 101 57 175 99 310 173 767 448 1010 607 327 214 670 444 770 518 14 10 106
77 205 148 151 109 537 398 625 468 409 327 817 667 956 796 6 5 46 42 90 80
72 64 166 150 219 200 12 11 63 58 114 105 161 147 615 595 828 816 79 82 304
322 326 348 10 11 39 43 65 71 92 101 400 452 451 515 20 25 41 50 47 55 6 6
35 39 64 75 29 36 56 67 59 70 4 3 67 82 141 175 74 94 140 176 147 183 7 7
34 41 60 75 26 34 51 67 55 72 327 410 942 1288 1197 1710 23 39 65 106 93
150 59 94 238 394 325 545 61 107 92 162 146 260 17 30 38 69 48 85 10 17 36
64 58 105 22 41 60 113 85 160 63 117 401 794 455 910 38 83 186 410 210 465
5 11 18 40 29 65 74 167 125 288 232 555 29 72 58 144 65 160 108 255 429
1181 530 1530 13 44 42 143 65 220 23 77 46 154 50 170 4 17 26 97 49 179 55
196 173 670 216 869 75 338 104 473 109 502 3 17 8 46 11 65 3 19 13 69 22
110 8 41 17 86 20 100 2 14 15 85 28 158 14 73 27 149 30 170 2 20 15 102 29
182 14 80 34 213 46 295 11 83 23 161 25 175 2 14 7 50 10 80 4 30 9 62 10 71
3 17 5 28 30 244 24 205 24 207 30 270 3 33 8 76 10 95 2 19 7 67 10 105 4 39
8 88 10 110 2 22 7 76 10 120 4 44 8 90 10 102 2 13 6 78 10 145 3 68 8 141
10 163 8 73 21 321 32 610 10 261 10 1221 -1 1490 -10 271 -12 309 -31 605 -2
41 -7 116 -10 165 -3 50 -7 110 -10 135 -3 25 -7 72 -10 105 -3 33 -9 112 -15
175 -6 63 -13 144 -16 180 -3 36 -7 76 -9 90 -7 41 -16 125 -50 439 -3 30 -8
57 -9 60 -2 3 -7 37 -11 75 -3 38 -8 72 -9 75 -2 3 -7 31 -10 61 -4 30 -11 87
-17 125 -10 70 -37 240 -54 348 -3 15 -7 39 -9 55 -9 54 -36 218 -41 242 -3
14 -10 52 -16 85 -18 101 -97 494 -118 595 -12 52 -28 129 -37 170 -20 94 -60
265 -129 540 -174 700 -404 1445 -663 2145 -56 153 -143 380 -152 400 -5 11
-18 43 -29 70 -34 91 -172 426 -181 443 -5 10 -47 105 -93 212 -152 352 -485
1048 -597 1250 -20 36 -66 121 -102 190 -36 69 -89 168 -118 220 -105 188
-234 416 -275 485 -132 222 -251 418 -285 470 -22 33 -43 67 -47 75 -19 41
-332 520 -444 680 -28 41 -77 111 -107 155 -30 44 -116 165 -191 268 -75 104
-149 208 -166 232 -16 23 -40 55 -53 71 -12 16 -81 106 -152 199 -278 362
-693 867 -895 1089 -6 6 -46 52 -89 101 -79 90 -96 109 -296 325 -291 315
-753 778 -1074 1075 -66 61 -136 126 -156 145 -20 19 -65 60 -100 90 -35 30
-76 66 -90 80 -15 14 -76 68 -136 120 -60 52 -111 97 -114 100 -3 3 -45 39
-95 80 -49 41 -92 77 -95 80 -4 5 -65 56 -145 122 -11 9 -76 62 -145 117 -69
56 -136 111 -150 122 -13 12 -69 56 -125 98 -55 43 -152 118 -216 167 -64 49
-129 99 -145 111 -99 73 -422 308 -489 355 -44 30 -120 83 -170 118 -80 55
-477 319 -610 405 -91 59 -419 261 -510 315 -49 29 -137 81 -195 116 -118 70
-463 264 -585 329 -44 23 -136 73 -205 110 -114 61 -728 367 -860 428 -106 49
-345 159 -375 172 -276 121 -378 165 -479 205 -67 27 -177 72 -246 100 -69 28
-179 72 -245 97 -66 24 -134 51 -152 59 -17 8 -35 14 -40 14 -4 0 -37 12 -73
26 -36 15 -74 30 -85 34 -50 20 -499 174 -680 233 -249 82 -659 206 -865 262
-180 49 -538 144 -570 150 -8 2 -100 23 -205 48 -159 39 -276 65 -445 101 -92
20 -320 67 -345 71 -16 3 -52 10 -80 15 -102 21 -320 61 -350 65 -20 3 -131
21 -190 31 -16 3 -43 7 -60 10 -16 2 -55 9 -85 14 -100 16 -198 31 -315 46
-22 3 -67 9 -100 14 -33 5 -78 12 -100 15 -21 2 -73 9 -115 14 -41 6 -102 13
-135 16 -33 3 -71 8 -85 10 -14 3 -52 7 -85 10 -33 3 -73 8 -90 10 -98 12
-127 15 -190 20 -38 3 -88 7 -110 10 -22 3 -71 7 -110 10 -38 3 -86 7 -105 9
-33 4 -93 9 -290 21 -47 3 -111 8 -142 10 -31 3 -116 8 -188 11 -72 3 -159 7
-193 9 -197 10 -1092 25 -1100 19z"/>
</g>
</svg>
